<?xml version="1.0" encoding="utf-8"?>
<!-- Generator: Adobe Illustrator 28.2.0, SVG Export Plug-In . SVG Version: 6.00 Build 0)  -->
<svg version="1.1" id="Layer_1" xmlns="http://www.w3.org/2000/svg" xmlns:xlink="http://www.w3.org/1999/xlink" x="0px" y="0px"
	 viewBox="0 0 246 81" style="enable-background:new 0 0 246 81;" xml:space="preserve">
<style type="text/css">
	.st0{fill:none;}
	.st1{fill:#231F20;}
	.st2{fill:#009AC7;}
	.st3{fill:url(#SVGID_1_);}
	.st4{fill:url(#SVGID_00000030457253810294712200000002501470507569188275_);}
	.st5{fill:#FFFFFF;filter:url(#Adobe_OpacityMaskFilter);}
	.st6{mask:url(#mask0_38_1327_00000031901491745603573150000013835123047388785321_);}
	.st7{fill:url(#SVGID_00000036954097631659819600000015346834328864908184_);}
	.st8{fill:url(#SVGID_00000115513985409289724620000011226924577195272368_);}
	.st9{fill:url(#SVGID_00000016067598315712974330000004232817273664499600_);}
	.st10{fill:url(#SVGID_00000144327381240118387430000002775710202861888386_);}
	.st11{fill:url(#SVGID_00000016048825562384907870000003083111872226539932_);}
	.st12{fill:url(#SVGID_00000125575440044228049120000009757796373372928908_);}
	.st13{fill:url(#SVGID_00000124122244316354354090000016106485732359331715_);}
	.st14{fill:url(#SVGID_00000155124247389931476050000017279886655775441818_);}
	.st15{fill:url(#SVGID_00000002353756043048557930000004328048912676051628_);}
	.st16{fill:url(#SVGID_00000155826916935207469610000017929234913488790969_);}
	.st17{fill:url(#SVGID_00000000930086316646717420000009427059918634795945_);}
	.st18{fill:url(#SVGID_00000093153318647762949160000011284849504138766992_);}
	.st19{fill:url(#SVGID_00000023258877424970524490000005484680140033968048_);}
	.st20{fill:url(#SVGID_00000115485601405856448360000011955238794774683317_);}
	.st21{fill:url(#SVGID_00000171692121614984039150000000779280689556760199_);}
	.st22{fill:url(#SVGID_00000181798276120796690570000016460448641773677185_);}
	.st23{fill:url(#SVGID_00000163789141385543007430000000912093102100949646_);}
	.st24{fill:url(#SVGID_00000130633731049354315180000016589198830022194071_);}
	.st25{fill:#FFFFFF;filter:url(#Adobe_OpacityMaskFilter_00000121275939457339302910000012950696609937950603_);}
	.st26{mask:url(#mask1_38_1327_00000105425144201524910550000018189985643996060859_);}
	.st27{opacity:0.7;fill:#FFFFFF;enable-background:new    ;}
	.st28{opacity:0.4;fill:#FFFFFF;enable-background:new    ;}
</style>
<rect y="0" class="st0" width="245.3" height="80.1"/>
<g>
	<path class="st1" d="M102,37.8h-3.7v-7.6h-7.3v7.6h-3.7V19.5h3.7V27h7.3v-7.5h3.7V37.8z"/>
	<path class="st1" d="M125,28.7c0,1.3-0.2,2.5-0.6,3.7c-0.5,1.2-1.2,2.3-2,3.2c-1.8,1.8-4.2,2.7-6.7,2.7c-2.5,0-4.9-1-6.7-2.7
		c-0.9-0.9-1.6-2-2.1-3.1c-0.5-1.2-0.7-2.4-0.7-3.7c0-1.3,0.2-2.5,0.6-3.7c0.5-1.2,1.2-2.3,2-3.2c1.8-1.8,4.2-2.7,6.8-2.7
		s5,1,6.8,2.7c0.9,0.9,1.6,2,2,3.2C124.8,26.1,125,27.4,125,28.7z M121.3,28.7c0.1-1.7-0.5-3.3-1.6-4.6c-1.1-1.1-2.6-1.7-4.2-1.7
		c-1.6,0-3.1,0.6-4.2,1.7c-1,1.3-1.6,2.9-1.6,4.6s0.6,3.3,1.6,4.6c0.5,0.6,1.2,1,1.9,1.3c0.7,0.3,1.5,0.4,2.3,0.4
		c0.8,0,1.6-0.1,2.3-0.4c0.7-0.3,1.4-0.7,1.9-1.3C120.8,32,121.4,30.3,121.3,28.7z"/>
	<path class="st1" d="M141.1,32.3c0,0.7-0.1,1.4-0.4,2.1c-0.2,0.6-0.6,1.2-1.1,1.6c-0.6,0.6-1.4,1.1-2.2,1.3c-1,0.3-2.1,0.4-3.1,0.4
		h-5.4V19.5h5.2c0.9,0,1.9,0.1,2.8,0.3c0.7,0.2,1.4,0.6,1.9,1.1c0.5,0.4,0.8,1,1.1,1.6c0.3,0.6,0.4,1.3,0.4,2c0,0.7-0.1,1.4-0.5,2
		c-0.3,0.6-0.8,1.1-1.4,1.4l-0.4,0.2l0.3,0.1c0.8,0.3,1.5,0.9,1.9,1.6C140.9,30.6,141.1,31.4,141.1,32.3z M137,24.7
		c0-0.3,0-0.6-0.1-0.9c-0.1-0.3-0.3-0.5-0.5-0.7c-0.5-0.4-1.2-0.6-1.8-0.6h-1.9V27h1.9c0.7,0,1.3-0.2,1.9-0.6
		c0.2-0.2,0.4-0.5,0.5-0.7C137,25.4,137,25,137,24.7z M137.6,32.1c0-0.4,0-0.7-0.2-1c-0.1-0.3-0.3-0.6-0.6-0.9
		c-0.6-0.5-1.4-0.7-2.2-0.7h-2.1v5.1h2.2c0.8,0,1.5-0.2,2.1-0.7c0.3-0.2,0.5-0.5,0.6-0.9C137.6,32.8,137.6,32.4,137.6,32.1z"/>
	<path class="st1" d="M159.6,37.8h-3.7l-1.6-4.6h-5.5l-1.5,4.6h-3.7l6.2-18.3h3.7L159.6,37.8z M153.5,30.2l-1.5-4.7
		c-0.1-0.3-0.1-0.5-0.2-0.8c-0.1-0.3-0.1-0.5-0.2-0.8c0,0.1-0.1,0.4-0.1,0.7c-0.1,0.3-0.2,0.6-0.2,1l-1.5,4.8L153.5,30.2z"/>
	<path class="st1" d="M176.1,37.8H172l-4.5-6.7c-0.2-0.3-0.3-0.6-0.5-0.8c-0.1-0.2-0.3-0.4-0.4-0.7c0,0.1,0,0.3,0,0.6
		c0,0.3,0,0.5,0,0.9v6.7H163V19.5h5.4c1.7-0.1,3.3,0.4,4.6,1.4c0.6,0.5,1,1.1,1.3,1.8c0.3,0.7,0.4,1.4,0.4,2.2
		c0.1,1.2-0.3,2.3-1,3.3c-0.8,0.8-1.8,1.4-2.9,1.5h-0.2l0.3,0.5L176.1,37.8z M171.3,25c0-0.3,0-0.6-0.2-0.9
		c-0.1-0.3-0.3-0.6-0.5-0.8c-0.6-0.4-1.3-0.6-2-0.6h-1.9v4.6h2c0.7,0.1,1.4-0.2,2-0.6c0.2-0.2,0.4-0.5,0.5-0.8
		C171.3,25.6,171.4,25.3,171.3,25z"/>
	<path class="st1" d="M189.8,22.8h-4.1v15h-3.7v-15H178l0.3-3.3h11.2L189.8,22.8z"/>
	<path class="st1" d="M213,34.5l-0.3,3.3h-10.6V19.5h10.6l0.3,3.3h-7.3v4.2h6.5v3.2h-6.5v4.4H213z"/>
	<path class="st1" d="M231.1,19.5l-5.8,12.8v5.4h-3.7v-5.4l-5.8-12.8h3.9l3.1,6.8c0.2,0.4,0.3,0.8,0.4,1.1c0.1,0.3,0.2,0.6,0.3,0.9
		c0,0,0,0,0-0.1c0.2-0.7,0.4-1.3,0.7-1.9l3-6.8H231.1z"/>
	<path class="st1" d="M245.3,34.5l-0.3,3.3h-10.6V19.5H245l0.3,3.3h-7.3v4.2h6.5v3.2h-6.5v4.4H245.3z"/>
	<path class="st2" d="M98.3,57c0,0.7-0.1,1.3-0.4,1.9c-0.3,0.6-0.6,1.2-1.1,1.6c-1.1,0.9-2.5,1.4-4,1.3c-1,0-2-0.2-2.9-0.6
		c-1-0.5-1.8-1.1-2.5-1.9l2-2.2c0.4,0.5,1,1,1.6,1.3c0.5,0.3,1.2,0.4,1.8,0.4c0.6,0,1.1-0.2,1.6-0.5c0.2-0.2,0.4-0.4,0.5-0.6
		c0.1-0.2,0.1-0.5,0.1-0.8c0-0.2,0-0.4-0.1-0.6c-0.1-0.2-0.2-0.4-0.3-0.5c-0.2-0.3-0.5-0.5-0.7-0.7c-0.3-0.2-0.8-0.5-1.3-0.9
		l-0.3-0.2c-1.1-0.7-1.9-1.2-2.2-1.4c-0.4-0.2-0.7-0.5-1-0.8c-0.3-0.4-0.6-0.8-0.8-1.2c-0.2-0.5-0.3-1-0.3-1.6
		c0-0.6,0.1-1.3,0.3-1.9c0.3-0.6,0.6-1.1,1.1-1.5c1.1-0.9,2.5-1.3,3.9-1.3c0.8,0,1.7,0.1,2.5,0.4c0.8,0.3,1.5,0.8,2.1,1.4L96,48.5
		c-0.4-0.4-0.8-0.8-1.4-1c-0.5-0.2-1-0.3-1.5-0.3c-0.5,0-1.1,0.1-1.5,0.4c-0.2,0.2-0.4,0.5-0.5,0.8c-0.1,0.3,0,0.7,0.1,1
		c0.1,0.2,0.2,0.4,0.4,0.5c0.2,0.1,0.4,0.3,0.6,0.5c0.3,0.2,0.8,0.5,1.4,0.9l0.3,0.2c0.8,0.5,1.5,1,2.3,1.5c0.4,0.3,0.8,0.8,1.2,1.2
		c0.3,0.4,0.5,0.8,0.6,1.2C98.3,56,98.3,56.5,98.3,57z"/>
	<path class="st2" d="M115.5,54.7c0,1-0.1,2.1-0.4,3.1c-0.3,0.9-0.8,1.6-1.5,2.3c-0.6,0.6-1.4,1.1-2.2,1.4c-1.8,0.6-3.7,0.6-5.5,0
		c-0.8-0.3-1.5-0.8-2.2-1.4c-0.6-0.6-1.1-1.4-1.5-2.3c-0.3-1-0.5-2-0.4-3.1v-10h3.4v10.1c0,0.7,0.1,1.3,0.2,1.9
		c0.2,0.5,0.4,1,0.8,1.3c0.3,0.3,0.7,0.5,1.1,0.7c0.4,0.2,0.9,0.3,1.3,0.2c0.5,0,0.9-0.1,1.3-0.2c0.4-0.1,0.8-0.4,1.1-0.7
		c0.4-0.4,0.6-0.8,0.8-1.3c0.2-0.6,0.3-1.3,0.2-1.9V44.7h3.4L115.5,54.7z"/>
	<path class="st2" d="M131.8,61.5H128l-4.1-6.2l-0.5-0.8c-0.1-0.2-0.3-0.4-0.3-0.6c0,0.1,0,0.3,0,0.5c0,0.2,0,0.5,0,0.8v6.2h-3.3
		V44.7h5c1.5-0.1,3.1,0.4,4.3,1.3c0.5,0.5,0.9,1,1.2,1.7c0.3,0.6,0.4,1.3,0.3,2c0,1.1-0.3,2.1-0.9,3c-0.7,0.8-1.7,1.3-2.7,1.4h-0.2
		c0.1,0.2,0.2,0.3,0.3,0.4L131.8,61.5z M127.4,49.7c0-0.3,0-0.6-0.1-0.9c-0.1-0.3-0.3-0.5-0.5-0.7c-0.5-0.4-1.2-0.6-1.9-0.6h-1.8
		v4.3h1.9c0.6,0,1.3-0.1,1.8-0.5c0.2-0.2,0.4-0.5,0.5-0.7C127.4,50.3,127.5,50,127.4,49.7z"/>
	<path class="st2" d="M150.4,57.6c-0.7,1.3-1.7,2.4-3,3.1c-1.4,0.8-2.9,1.2-4.5,1.2c-1.8,0-3.5-0.5-4.9-1.5c-1.5-1-2.6-2.4-3.3-4
		s-0.9-3.4-0.5-5.1c0.3-1.7,1.2-3.3,2.4-4.6c0.8-0.8,1.8-1.5,2.9-1.9c1.1-0.4,2.3-0.7,3.4-0.6c1.3,0,2.6,0.3,3.8,0.9
		c1.2,0.6,2.2,1.5,3,2.5l-2.3,2.1c-0.5-0.7-1.2-1.4-2-1.8c-0.8-0.4-1.6-0.6-2.5-0.6c-0.7,0-1.5,0.1-2.2,0.4s-1.3,0.7-1.8,1.2
		c-1,1.2-1.6,2.6-1.6,4.2s0.6,3,1.6,4.2c0.5,0.5,1.1,1,1.8,1.3c0.7,0.3,1.4,0.4,2.2,0.4c0.8,0,1.6-0.2,2.4-0.6
		c0.7-0.3,1.3-0.8,1.8-1.5v-2.4h-3.8l0.6-3h6.5L150.4,57.6z"/>
	<path class="st2" d="M164.3,58.5l-0.3,3h-9.7V44.7h9.8l0.3,3h-6.8v3.8h6v3h-6v4H164.3z"/>
	<path class="st2" d="M184.9,53.1c0,1.2-0.2,2.3-0.6,3.4c-0.4,1.1-1.1,2.1-1.9,2.9c-1.7,1.6-3.9,2.5-6.2,2.5c-2.3,0-4.6-0.9-6.2-2.5
		c-0.8-0.8-1.5-1.8-1.9-2.9c-0.4-1.1-0.6-2.2-0.6-3.4c0-1.2,0.2-2.4,0.6-3.5c0.4-1.1,1.1-2.1,1.9-2.9c1.7-1.6,3.9-2.5,6.2-2.5
		c2.3,0,4.6,0.9,6.2,2.5c0.8,0.8,1.5,1.8,1.9,2.9C184.7,50.8,184.9,51.9,184.9,53.1z M181.4,53.1c0.1-1.5-0.4-3.1-1.4-4.2
		c-1-1-2.4-1.6-3.9-1.6c-1.4,0-2.8,0.6-3.9,1.6c-0.9,1.2-1.5,2.7-1.5,4.2c0,1.5,0.5,3,1.5,4.2c0.5,0.5,1.1,0.9,1.8,1.2
		c0.7,0.3,1.4,0.4,2.1,0.4c0.7,0,1.4-0.1,2.1-0.4c0.7-0.3,1.3-0.7,1.8-1.2C181,56.1,181.5,54.6,181.4,53.1z"/>
	<path class="st2" d="M202.2,61.5h-3.1l-6.3-9.8c-0.1-0.2-0.3-0.4-0.4-0.7s-0.3-0.5-0.4-0.8c0,0.2,0,0.5,0,0.8s0,0.6,0,0.9v9.6h-3.4
		V44.7h3.1l6.3,9.7c0.3,0.5,0.6,0.9,0.8,1.4l0.1,0.1v-0.1c-0.1-0.6-0.1-1.1-0.1-1.6v-9.6h3.4L202.2,61.5z"/>
	<path class="st2" d="M216.8,57c0,0.7-0.1,1.3-0.4,1.9c-0.3,0.6-0.6,1.2-1.1,1.6c-1.1,0.9-2.5,1.4-4,1.3c-1,0-2-0.2-2.9-0.6
		c-1-0.5-1.8-1.1-2.5-1.9l2-2.2c0.4,0.5,1,1,1.6,1.3c0.5,0.3,1.2,0.4,1.8,0.4c0.6,0,1.1-0.2,1.6-0.5c0.2-0.2,0.4-0.4,0.5-0.6
		c0.1-0.2,0.1-0.5,0.1-0.8c0-0.2,0-0.4-0.1-0.5c-0.1-0.2-0.2-0.4-0.3-0.5c-0.2-0.3-0.5-0.5-0.7-0.7c-0.3-0.2-0.8-0.5-1.3-0.9
		l-0.3-0.2c-1.1-0.7-1.9-1.1-2.2-1.4c-0.4-0.2-0.7-0.5-1-0.8c-0.3-0.4-0.6-0.8-0.8-1.2c-0.2-0.5-0.3-1-0.3-1.6
		c0-0.6,0.1-1.3,0.3-1.9c0.3-0.6,0.6-1.1,1.1-1.5c1.1-0.9,2.5-1.3,3.9-1.3c0.8,0,1.7,0.1,2.4,0.4c0.8,0.3,1.5,0.8,2.1,1.4l-1.8,2.2
		c-0.4-0.4-0.8-0.8-1.4-1c-0.5-0.2-1-0.3-1.5-0.3c-0.5,0-1.1,0.1-1.5,0.4c-0.2,0.2-0.4,0.5-0.5,0.8c-0.1,0.3,0,0.7,0.1,1
		c0.1,0.2,0.2,0.4,0.4,0.5c0.2,0.1,0.4,0.3,0.6,0.5s0.8,0.5,1.4,0.9l0.3,0.2c0.8,0.5,1.5,1,2.3,1.5c0.4,0.4,0.8,0.8,1.2,1.2
		c0.3,0.4,0.5,0.8,0.6,1.2C216.8,56,216.8,56.5,216.8,57z"/>
</g>
<g>
	
		<radialGradient id="SVGID_1_" cx="-289.4843" cy="331.7604" r="1" gradientTransform="matrix(39.5199 0 0 -39.5199 11480.4512 13151.6406)" gradientUnits="userSpaceOnUse">
		<stop  offset="0.7" style="stop-color:#009AC7"/>
		<stop  offset="0.73" style="stop-color:#35AFD3"/>
		<stop  offset="0.75" style="stop-color:#64C2DD"/>
		<stop  offset="0.78" style="stop-color:#8ED2E6"/>
		<stop  offset="0.81" style="stop-color:#B1E0EE"/>
		<stop  offset="0.84" style="stop-color:#CDEBF4"/>
		<stop  offset="0.87" style="stop-color:#E3F4F9"/>
		<stop  offset="0.9" style="stop-color:#F3FAFC"/>
		<stop  offset="0.94" style="stop-color:#FCFEFE"/>
		<stop  offset="1" style="stop-color:#FFFFFF"/>
	</radialGradient>
	<path class="st3" d="M74.7,59.6c-3.8,6.8-9.5,12.4-16.4,16s-14.8,5.1-22.6,4.2c-7.8-0.9-15.1-4-21.1-9.1c-6-5-10.3-11.7-12.5-19.2
		C-0.1,44,0,36,2.4,28.6c2.4-7.5,6.9-14,13-18.9c6.1-4.9,13.5-7.8,21.3-8.5s15.6,1,22.4,4.8c4.5,2.5,8.6,5.9,11.8,9.9
		c3.2,4.1,5.7,8.7,7.1,13.7c1.4,5,1.9,10.2,1.3,15.4S77.2,55,74.7,59.6z"/>
	
		<radialGradient id="SVGID_00000128474555770252324690000013033795420814094014_" cx="-284.9368" cy="327.8186" r="1" gradientTransform="matrix(24.62 0 0 -24.62 7055.1899 8111.4048)" gradientUnits="userSpaceOnUse">
		<stop  offset="0.26" style="stop-color:#FFFFFF"/>
		<stop  offset="0.32" style="stop-color:#E1F3F8"/>
		<stop  offset="0.54" style="stop-color:#82CEE4"/>
		<stop  offset="0.72" style="stop-color:#3CB2D4"/>
		<stop  offset="0.85" style="stop-color:#11A1CB"/>
		<stop  offset="0.92" style="stop-color:#009AC7"/>
	</radialGradient>
	<path style="fill:url(#SVGID_00000128474555770252324690000013033795420814094014_);" d="M61.6,52.4c-2.3,4.3-5.9,7.7-10.2,10
		c-4.3,2.2-9.2,3.1-14.1,2.6c-4.8-0.5-9.4-2.5-13.1-5.6c-3.7-3.1-6.4-7.3-7.8-12c-1.4-4.7-1.3-9.7,0.2-14.3
		c1.5-4.6,4.3-8.7,8.1-11.8c3.8-3,8.4-4.9,13.3-5.3c4.9-0.4,9.7,0.6,14,3c2.8,1.6,5.3,3.7,7.3,6.2c2,2.5,3.5,5.4,4.4,8.5
		c0.9,3.1,1.2,6.4,0.8,9.6S63.2,49.6,61.6,52.4z"/>
	<defs>
		<filter id="Adobe_OpacityMaskFilter" filterUnits="userSpaceOnUse" x="0" y="0.5" width="80.1" height="80.1">
			<feColorMatrix  type="matrix" values="1 0 0 0 0  0 1 0 0 0  0 0 1 0 0  0 0 0 1 0"/>
		</filter>
	</defs>
	
		<mask maskUnits="userSpaceOnUse" x="0" y="0.5" width="80.1" height="80.1" id="mask0_38_1327_00000031901491745603573150000013835123047388785321_">
		<path class="st5" d="M61.6,52.4c-2.3,4.3-5.9,7.7-10.2,10c-4.3,2.2-9.2,3.1-14.1,2.6c-4.8-0.5-9.4-2.5-13.1-5.6
			c-3.7-3.1-6.4-7.3-7.8-12c-1.4-4.7-1.3-9.7,0.2-14.3c1.5-4.6,4.3-8.7,8.1-11.8c3.8-3,8.4-4.9,13.3-5.3c4.9-0.4,9.7,0.6,14,3
			c2.8,1.6,5.3,3.7,7.3,6.2c2,2.5,3.5,5.4,4.4,8.5c0.9,3.1,1.2,6.4,0.8,9.6S63.2,49.6,61.6,52.4z"/>
	</mask>
	<g class="st6">
		
			<radialGradient id="SVGID_00000098937411866484350700000007381736319657001625_" cx="-280.3594" cy="329.1884" r="1" gradientTransform="matrix(17.8479 0 0 -28.33 5043.8975 9366.4072)" gradientUnits="userSpaceOnUse">
			<stop  offset="0.11" style="stop-color:#FFFFFF"/>
			<stop  offset="0.62" style="stop-color:#5ABEDB"/>
			<stop  offset="0.92" style="stop-color:#009AC7"/>
		</radialGradient>
		<path style="fill:url(#SVGID_00000098937411866484350700000007381736319657001625_);" d="M40.8,0.5h-1.4v80.1h1.4V0.5z"/>
		
			<radialGradient id="SVGID_00000000923900712988596780000016272582480553133496_" cx="-283.114" cy="327.5082" r="1" gradientTransform="matrix(17.5773 -3.0962 -4.9146 -27.9005 6625.9854 8301.5596)" gradientUnits="userSpaceOnUse">
			<stop  offset="0.11" style="stop-color:#FFFFFF"/>
			<stop  offset="0.62" style="stop-color:#5ABEDB"/>
			<stop  offset="0.92" style="stop-color:#009AC7"/>
		</radialGradient>
		<path style="fill:url(#SVGID_00000000923900712988596780000016272582480553133496_);" d="M33.8,0.9l-1.4,0.2l13.9,78.9l1.4-0.2
			L33.8,0.9z"/>
		
			<radialGradient id="SVGID_00000064327141203846970250000015725046261887246270_" cx="-286.2797" cy="326.1564" r="1" gradientTransform="matrix(16.7769 -6.0897 -9.6662 -26.6299 7995.5444 6982.8579)" gradientUnits="userSpaceOnUse">
			<stop  offset="0.11" style="stop-color:#FFFFFF"/>
			<stop  offset="0.62" style="stop-color:#5ABEDB"/>
			<stop  offset="0.92" style="stop-color:#009AC7"/>
		</radialGradient>
		<path style="fill:url(#SVGID_00000064327141203846970250000015725046261887246270_);" d="M27,2.6l-1.3,0.5l27.3,75.3l1.3-0.5
			L27,2.6z"/>
		
			<radialGradient id="SVGID_00000054235117377366050610000012199293550246079156_" cx="-289.8157" cy="325.1606" r="1" gradientTransform="matrix(15.4505 -8.9347 -14.1821 -24.5246 9129.4277 5425.2954)" gradientUnits="userSpaceOnUse">
			<stop  offset="0.11" style="stop-color:#FFFFFF"/>
			<stop  offset="0.62" style="stop-color:#5ABEDB"/>
			<stop  offset="0.92" style="stop-color:#009AC7"/>
		</radialGradient>
		<path style="fill:url(#SVGID_00000054235117377366050610000012199293550246079156_);" d="M20.6,5.5l-1.2,0.7l40.1,69.3l1.2-0.7
			L20.6,5.5z"/>
		
			<radialGradient id="SVGID_00000065788077980541423810000016931446420299348096_" cx="-293.5284" cy="324.5746" r="1" gradientTransform="matrix(13.6703 -11.4748 -18.214 -21.6989 9964.5098 3715.1763)" gradientUnits="userSpaceOnUse">
			<stop  offset="0.11" style="stop-color:#FFFFFF"/>
			<stop  offset="0.62" style="stop-color:#5ABEDB"/>
			<stop  offset="0.92" style="stop-color:#009AC7"/>
		</radialGradient>
		<path style="fill:url(#SVGID_00000065788077980541423810000016931446420299348096_);" d="M14.8,9.4l-1.1,0.9l51.5,61.4l1.1-0.9
			L14.8,9.4z"/>
		
			<radialGradient id="SVGID_00000108992327158443143650000003481770105387479989_" cx="-297.3535" cy="324.4033" r="1" gradientTransform="matrix(11.4724 -13.6723 -21.702 -18.2102 10491.6631 1882.3901)" gradientUnits="userSpaceOnUse">
			<stop  offset="0.11" style="stop-color:#FFFFFF"/>
			<stop  offset="0.62" style="stop-color:#5ABEDB"/>
			<stop  offset="0.92" style="stop-color:#009AC7"/>
		</radialGradient>
		<path style="fill:url(#SVGID_00000108992327158443143650000003481770105387479989_);" d="M9.8,14.2l-0.9,1.1l61.4,51.5l0.9-1.1
			L9.8,14.2z"/>
		
			<radialGradient id="SVGID_00000013910199745942866540000009617626377724109734_" cx="-301.1794" cy="324.6519" r="1.0012" gradientTransform="matrix(8.9186 -15.4598 -24.5394 -14.1564 10692.9775 -19.9073)" gradientUnits="userSpaceOnUse">
			<stop  offset="0.11" style="stop-color:#FFFFFF"/>
			<stop  offset="0.62" style="stop-color:#5ABEDB"/>
			<stop  offset="0.92" style="stop-color:#009AC7"/>
		</radialGradient>
		<path style="fill:url(#SVGID_00000013910199745942866540000009617626377724109734_);" d="M5.7,19.9L5,21.1l69.4,40l0.7-1.2
			L5.7,19.9z"/>
		
			<radialGradient id="SVGID_00000168834145552651101810000011593914335150848940_" cx="-304.8597" cy="325.3163" r="1.0001" gradientTransform="matrix(6.1073 -16.7705 -26.6198 -9.6941 10561.7529 -1918.4598)" gradientUnits="userSpaceOnUse">
			<stop  offset="0.11" style="stop-color:#FFFFFF"/>
			<stop  offset="0.62" style="stop-color:#5ABEDB"/>
			<stop  offset="0.92" style="stop-color:#009AC7"/>
		</radialGradient>
		<path style="fill:url(#SVGID_00000168834145552651101810000011593914335150848940_);" d="M2.7,26.1l-0.5,1.3l75.3,27.4l0.5-1.3
			L2.7,26.1z"/>
		
			<radialGradient id="SVGID_00000119077266735000383010000001443315180425070000_" cx="-308.3192" cy="326.3737" r="0.9999" gradientTransform="matrix(3.0962 -17.5773 -27.9005 -4.9146 10100.6631 -3775.021)" gradientUnits="userSpaceOnUse">
			<stop  offset="0.11" style="stop-color:#FFFFFF"/>
			<stop  offset="0.62" style="stop-color:#5ABEDB"/>
			<stop  offset="0.92" style="stop-color:#009AC7"/>
		</radialGradient>
		<path style="fill:url(#SVGID_00000119077266735000383010000001443315180425070000_);" d="M0.7,32.9l-0.2,1.4l78.9,13.9l0.2-1.4
			L0.7,32.9z"/>
		
			<radialGradient id="SVGID_00000144323661971941071760000004608574637240596405_" cx="-311.4247" cy="327.792" r="1" gradientTransform="matrix(1.092869e-15 -17.8479 -28.33 -1.734712e-15 9326.3975 -5517.7852)" gradientUnits="userSpaceOnUse">
			<stop  offset="0.11" style="stop-color:#FFFFFF"/>
			<stop  offset="0.62" style="stop-color:#5ABEDB"/>
			<stop  offset="0.92" style="stop-color:#009AC7"/>
		</radialGradient>
		<path style="fill:url(#SVGID_00000144323661971941071760000004608574637240596405_);" d="M80.1,39.8H0v1.4h80.1V39.8z"/>
		
			<radialGradient id="SVGID_00000155138348101500834720000014154124553241219241_" cx="-314.0829" cy="329.5213" r="0.999" gradientTransform="matrix(-3.0839 -17.5795 -27.9039 4.8951 8266.4307 -7093.5747)" gradientUnits="userSpaceOnUse">
			<stop  offset="0.11" style="stop-color:#FFFFFF"/>
			<stop  offset="0.62" style="stop-color:#5ABEDB"/>
			<stop  offset="0.92" style="stop-color:#009AC7"/>
		</radialGradient>
		<path style="fill:url(#SVGID_00000155138348101500834720000014154124553241219241_);" d="M79.4,32.9L0.5,46.7l0.2,1.4l78.9-13.8
			L79.4,32.9z"/>
		
			<radialGradient id="SVGID_00000038396154709678006720000010137016050620451477_" cx="-316.2404" cy="331.526" r="1.0004" gradientTransform="matrix(-6.0956 -16.7748 -26.6266 9.6755 6939.8623 -8471.7988)" gradientUnits="userSpaceOnUse">
			<stop  offset="0.11" style="stop-color:#FFFFFF"/>
			<stop  offset="0.62" style="stop-color:#5ABEDB"/>
			<stop  offset="0.92" style="stop-color:#009AC7"/>
		</radialGradient>
		<path style="fill:url(#SVGID_00000038396154709678006720000010137016050620451477_);" d="M77.5,26.2L2.2,53.5l0.5,1.3l75.3-27.4
			L77.5,26.2z"/>
		
			<radialGradient id="SVGID_00000041983319887171030920000000229808436908595628_" cx="-317.6295" cy="333.7996" r="1" gradientTransform="matrix(-9.0657 -15.5815 -24.5709 14.296 5364.7568 -9680.2646)" gradientUnits="userSpaceOnUse">
			<stop  offset="0.11" style="stop-color:#FFFFFF"/>
			<stop  offset="0.62" style="stop-color:#5ABEDB"/>
			<stop  offset="0.92" style="stop-color:#009AC7"/>
		</radialGradient>
		<path style="fill:url(#SVGID_00000041983319887171030920000000229808436908595628_);" d="M74.4,19.9l0.7,1.2L5.7,61.1L5,59.9
			L74.4,19.9z"/>
		
			<radialGradient id="SVGID_00000056389762904732562010000010857010044329170619_" cx="-318.748" cy="336.0953" r="0.9985" gradientTransform="matrix(-11.4796 -13.6664 -21.6925 18.2215 3671.5652 -10439.9463)" gradientUnits="userSpaceOnUse">
			<stop  offset="0.11" style="stop-color:#FFFFFF"/>
			<stop  offset="0.62" style="stop-color:#5ABEDB"/>
			<stop  offset="0.92" style="stop-color:#009AC7"/>
		</radialGradient>
		<path style="fill:url(#SVGID_00000056389762904732562010000010857010044329170619_);" d="M70.3,14.2L8.9,65.7l0.9,1.1l61.3-51.5
			L70.3,14.2z"/>
		
			<radialGradient id="SVGID_00000133513224994888314570000015910201559507689625_" cx="-319.0193" cy="338.4994" r="1" gradientTransform="matrix(-13.6724 -11.4725 -18.2102 21.702 1842.4116 -10965.5762)" gradientUnits="userSpaceOnUse">
			<stop  offset="0.11" style="stop-color:#FFFFFF"/>
			<stop  offset="0.62" style="stop-color:#5ABEDB"/>
			<stop  offset="0.92" style="stop-color:#009AC7"/>
		</radialGradient>
		<path style="fill:url(#SVGID_00000133513224994888314570000015910201559507689625_);" d="M65.3,9.4L13.8,70.7l1.1,0.9l51.5-61.4
			L65.3,9.4z"/>
		
			<radialGradient id="SVGID_00000127007746453320631100000009414472954339633078_" cx="-318.6256" cy="340.8942" r="1.0017" gradientTransform="matrix(-15.4521 -8.9321 -14.1778 24.5271 -50.0093 -11166.4922)" gradientUnits="userSpaceOnUse">
			<stop  offset="0.11" style="stop-color:#FFFFFF"/>
			<stop  offset="0.62" style="stop-color:#5ABEDB"/>
			<stop  offset="0.92" style="stop-color:#009AC7"/>
		</radialGradient>
		<path style="fill:url(#SVGID_00000127007746453320631100000009414472954339633078_);" d="M59.5,5.5L19.4,74.8l1.2,0.7L60.7,6.2
			L59.5,5.5z"/>
		
			<radialGradient id="SVGID_00000127038079442696574710000005435907557175892873_" cx="-317.5691" cy="343.2332" r="1" gradientTransform="matrix(-16.7727 -6.1014 -9.6848 26.6232 -1962.3392 -11035.1006)" gradientUnits="userSpaceOnUse">
			<stop  offset="0.11" style="stop-color:#FFFFFF"/>
			<stop  offset="0.62" style="stop-color:#5ABEDB"/>
			<stop  offset="0.92" style="stop-color:#009AC7"/>
		</radialGradient>
		<path style="fill:url(#SVGID_00000127038079442696574710000005435907557175892873_);" d="M53.1,2.6L25.7,77.9l1.3,0.5L54.4,3.1
			L53.1,2.6z"/>
		
			<radialGradient id="SVGID_00000159448300540143311780000011356677305449368471_" cx="-315.8984" cy="345.3984" r="1" gradientTransform="matrix(-17.5752 -3.1085 -4.9341 27.897 -3807.4705 -10576.8711)" gradientUnits="userSpaceOnUse">
			<stop  offset="0.11" style="stop-color:#FFFFFF"/>
			<stop  offset="0.62" style="stop-color:#5ABEDB"/>
			<stop  offset="0.92" style="stop-color:#009AC7"/>
		</radialGradient>
		<path style="fill:url(#SVGID_00000159448300540143311780000011356677305449368471_);" d="M46.3,0.9l-14,78.9l1.4,0.2l14-78.9
			L46.3,0.9z"/>
	</g>
	<defs>
		
			<filter id="Adobe_OpacityMaskFilter_00000027583883632181381460000012631690662981628075_" filterUnits="userSpaceOnUse" x="27.8" y="24.2" width="31.6" height="29.6">
			<feColorMatrix  type="matrix" values="1 0 0 0 0  0 1 0 0 0  0 0 1 0 0  0 0 0 1 0"/>
		</filter>
	</defs>
	
		<mask maskUnits="userSpaceOnUse" x="27.8" y="24.2" width="31.6" height="29.6" id="mask1_38_1327_00000105425144201524910550000018189985643996060859_">
		<path style="fill:#FFFFFF;filter:url(#Adobe_OpacityMaskFilter_00000027583883632181381460000012631690662981628075_);" d="
			M51.2,46.2c-1.2,2.2-3,3.9-5.2,5c-2.2,1.1-4.7,1.6-7.1,1.3c-2.4-0.3-4.8-1.3-6.6-2.9c-1.9-1.6-3.3-3.7-3.9-6.1
			c-0.7-2.4-0.7-4.9,0.1-7.2c0.7-2.4,2.2-4.4,4.1-6s4.3-2.5,6.7-2.7c2.5-0.2,4.9,0.3,7.1,1.5c1.4,0.8,2.7,1.9,3.7,3.1
			c1,1.3,1.8,2.8,2.2,4.3c0.5,1.6,0.6,3.2,0.4,4.9C52.5,43.2,52,44.8,51.2,46.2z"/>
	</mask>
	<g class="st26">
		<path class="st1" d="M51.2,46.2c-1.2,2.2-3,3.9-5.2,5c-2.2,1.1-4.7,1.6-7.1,1.3c-2.4-0.3-4.8-1.3-6.6-2.9
			c-1.9-1.6-3.3-3.7-3.9-6.1c-0.7-2.4-0.7-4.9,0.1-7.2c0.7-2.4,2.2-4.4,4.1-6s4.3-2.5,6.7-2.7c2.5-0.2,4.9,0.3,7.1,1.5
			c1.4,0.8,2.7,1.9,3.7,3.1c1,1.3,1.8,2.8,2.2,4.3c0.5,1.6,0.6,3.2,0.4,4.9C52.5,43.2,52,44.8,51.2,46.2z"/>
		<path class="st1" d="M57.6,46.2c-1.4,2.6-3.6,4.6-6.2,6c-2.6,1.3-5.5,1.9-8.4,1.6c-2.9-0.3-5.7-1.5-7.9-3.4
			c-2.2-1.9-3.9-4.4-4.7-7.2s-0.8-5.8,0.1-8.6c0.9-2.8,2.6-5.3,4.9-7.1s5.1-2.9,8-3.2c2.9-0.2,5.8,0.4,8.4,1.8
			c1.7,0.9,3.2,2.2,4.4,3.7c1.2,1.5,2.1,3.3,2.7,5.1c0.5,1.9,0.7,3.8,0.5,5.8C59.1,42.6,58.5,44.5,57.6,46.2z"/>
	</g>
	<path class="st27" d="M54.6,31.7c0,1-0.3,2-0.9,2.9c-0.6,0.9-1.4,1.5-2.3,1.9c-1,0.4-2,0.5-3,0.3c-1-0.2-1.9-0.7-2.7-1.4
		c-0.7-0.7-1.2-1.7-1.4-2.7c-0.2-1-0.1-2.1,0.3-3c0.4-0.9,1.1-1.8,1.9-2.3c0.9-0.6,1.9-0.9,2.9-0.9c0.7,0,1.4,0.1,2,0.4
		c0.6,0.3,1.2,0.6,1.7,1.1c0.5,0.5,0.9,1.1,1.1,1.7C54.5,30.4,54.6,31.1,54.6,31.7z"/>
	<path class="st28" d="M60.3,39.3c0,1.5-0.4,3-1.3,4.2c-0.8,1.3-2,2.2-3.4,2.8s-2.9,0.7-4.4,0.4c-1.5-0.3-2.8-1-3.9-2.1
		c-1.1-1.1-1.8-2.4-2.1-3.9c-0.3-1.5-0.1-3,0.4-4.4c0.6-1.4,1.6-2.6,2.8-3.4c1.3-0.8,2.7-1.3,4.2-1.3c2,0,4,0.8,5.4,2.2
		S60.3,37.2,60.3,39.3z"/>
</g>
</svg>
